<svg width="12" height="16" viewBox="0 0 12 16" fill="none" xmlns="http://www.w3.org/2000/svg">
<path fill-rule="evenodd" clip-rule="evenodd" d="M4 0C1.79077 0 0 1.79077 0 4V12C0 14.2092 1.79077 16 4 16H8C10.2092 16 12 14.2092 12 12V4C12 1.79077 10.2092 0 8 0H4ZM6.33081 8.66431L8.6001 10.6499L6 13.25V8.95386L6.33081 8.66431ZM7.09009 8L9.65845 10.2473L9.34985 10.5999L9.70703 10.957L5.95703 14.707L5.25 14H5V9.82886L3.65845 11.0027L3 10.25L5 8.5V7.5L3 5.75L3.65845 4.99731L5 6.17114V2H5.25L5.95703 1.29297L9.70703 5.04297L9.34985 5.40015L9.65845 5.75269L7.09009 8ZM6.33081 7.33569L8.6001 5.3501L6 2.75V7.04614L6.33081 7.33569Z" fill="#4C79FF"/>
<line x1="3.32925" y1="5.37371" x2="9.32925" y2="10.6237" stroke="#3C4E2B"/>
<line x1="9.35355" y1="10.6036" x2="5.60355" y2="14.3536" stroke="#3C4E2B"/>
<line x1="5.5" y1="14" x2="5.5" y2="2" stroke="#3C4E2B"/>
<line x1="5.60355" y1="1.64645" x2="9.35355" y2="5.39645" stroke="#3C4E2B"/>
<line x1="9.32925" y1="5.37629" x2="3.32925" y2="10.6263" stroke="#3C4E2B"/>
</svg>
