<svg width="18" height="14" viewBox="0 0 18 14" fill="none" xmlns="http://www.w3.org/2000/svg">
<path d="M3.375 2.4C3.375 1.84772 3.82272 1.4 4.375 1.4H6.75V12.6H4.375C3.82272 12.6 3.375 12.1523 3.375 11.6V2.4Z" fill="#C5CBBF"/>
<rect x="6.75" width="1.125" height="14" fill="#C5CBBF"/>
<path d="M11.25 1.4H13.625C14.1773 1.4 14.625 1.84772 14.625 2.4V11.6C14.625 12.1523 14.1773 12.6 13.625 12.6H11.25V1.4Z" fill="#C5CBBF"/>
<rect x="10.125" width="1.125" height="14" fill="#C5CBBF"/>
<rect y="5.6" width="3.375" height="2.8" fill="#C5CBBF"/>
<rect x="14.625" y="5.6" width="3.375" height="2.8" fill="#C5CBBF"/>
<path fill-rule="evenodd" clip-rule="evenodd" d="M9 10C10.6569 10 12 8.65685 12 7C12 5.34315 10.6569 4 9 4C7.34315 4 6 5.34315 6 7C6 8.65685 7.34315 10 9 10ZM9 9.25C10.2426 9.25 11.25 8.24264 11.25 7C11.25 5.75736 10.2426 4.75 9 4.75C7.75736 4.75 6.75 5.75736 6.75 7C6.75 8.24264 7.75736 9.25 9 9.25Z" fill="#FF0000"/>
<rect x="7" y="8.71231" width="5.25" height="0.75" transform="rotate(-45 7 8.71231)" fill="#FF0000"/>
</svg>
