<svg width="18" height="14" viewBox="0 0 18 14" fill="none" xmlns="http://www.w3.org/2000/svg">
<path d="M3.375 2.40001C3.375 1.84772 3.82272 1.40001 4.375 1.40001H6.75V12.6H4.375C3.82272 12.6 3.375 12.1523 3.375 11.6V2.40001Z" fill="#C5CBBF"/>
<rect x="6.75" y="1.52588e-05" width="1.125" height="14" fill="#C5CBBF"/>
<path d="M11.25 1.40001H13.625C14.1773 1.40001 14.625 1.84772 14.625 2.40001V11.6C14.625 12.1523 14.1773 12.6 13.625 12.6H11.25V1.40001Z" fill="#C5CBBF"/>
<rect x="10.125" y="1.52588e-05" width="1.125" height="14" fill="#C5CBBF"/>
<rect y="5.60001" width="3.375" height="2.8" fill="#C5CBBF"/>
<rect x="14.625" y="5.60001" width="3.375" height="2.8" fill="#C5CBBF"/>
<rect x="6.75" y="4.20001" width="5.625" height="1.4" fill="#CC9BEC"/>
<path d="M3.375 4.9L6.75 3.08135V6.71865L3.375 4.9Z" fill="#CC9BEC"/>
<rect x="11.25" y="9.8" width="5.625" height="1.4" transform="rotate(180 11.25 9.8)" fill="#586947"/>
<path d="M14.625 9.1L11.25 10.9186V7.28135L14.625 9.1Z" fill="#586947"/>
</svg>
